<?xml version="1.0" encoding="iso-8859-1"?>
<!-- Generator: Adobe Illustrator 16.0.0, SVG Export Plug-In . SVG Version: 6.00 Build 0)  -->
<!DOCTYPE svg PUBLIC "-//W3C//DTD SVG 1.1//EN" "http://www.w3.org/Graphics/SVG/1.1/DTD/svg11.dtd">
<svg version="1.1" id="Capa_1" xmlns="http://www.w3.org/2000/svg" xmlns:xlink="http://www.w3.org/1999/xlink" x="0px" y="0px"
	 width="69.205px" height="69.205px" viewBox="0 0 69.205 69.205" style="enable-background:new 0 0 69.205 69.205;"
	 xml:space="preserve">
<g>
	<path d="M32.349,65.494c0.817,0.826,1.71,1.561,2.648,2.244H10.22l-7.833-4.932V0h46.506v1.883v0.78v0.78v3.87v21.162
		c-0.371-0.018-0.734-0.051-1.117-0.051c-12.015,0-21.75,9.736-21.75,21.75c0,4.722,1.516,9.069,4.066,12.632H10.21H7.003
		l4.366,2.689h20.98V65.494z M66.818,50.17c0,10.497-8.535,19.035-19.033,19.035S28.748,60.667,28.748,50.17
		c0-10.502,8.54-19.042,19.038-19.042S66.818,39.668,66.818,50.17z M63.314,50.17c0-8.567-6.966-15.539-15.529-15.539
		c-8.567,0-15.534,6.972-15.534,15.539c0,8.563,6.967,15.532,15.534,15.532C56.349,65.702,63.314,58.733,63.314,50.17z
		 M47.785,45.517c-2.573,0-4.648,2.08-4.648,4.653c0,2.568,2.08,4.646,4.648,4.646c2.566,0,4.648-2.08,4.648-4.646
		C52.434,47.595,50.35,45.517,47.785,45.517z"/>
</g>
<g>
</g>
<g>
</g>
<g>
</g>
<g>
</g>
<g>
</g>
<g>
</g>
<g>
</g>
<g>
</g>
<g>
</g>
<g>
</g>
<g>
</g>
<g>
</g>
<g>
</g>
<g>
</g>
<g>
</g>
</svg>
